# xmcd
#
# Track frame offsets: 
#        150
#        16478
#        30510
#        46925
#        67354
#        80889
#        98699
#        115797
#        132909
#        147602
#        163909
#        179659
#        196260
#
# Disc length: 2835 seconds
#
# Revision: 0
# Processed by: cddbd v1.5.2PL0 Copyright (c) Steve Scherf et al.
# Submitted via: ExactAudioCopy v0.99pb4
#
DISCID=c00b110d
DTITLE=Ilse de Lange - Incredible
DYEAR=2008
DGENRE=Pop
TTITLE0=Broken Girl
TTITLE1=Something Amazing
TTITLE2=Stay With Me
TTITLE3=Miracle
TTITLE4=So Incredible
TTITLE5=We're Alright
TTITLE6=Adrift
TTITLE7=Puzzle Me
TTITLE8=Love Won't Hide
TTITLE9=Nothing Left To Break 
TTITLE10=The Other Side
TTITLE11=Fall
TTITLE12=Watch Me Go
EXTD=
EXTT0=
EXTT1=
EXTT2=
EXTT3=
EXTT4=
EXTT5=
EXTT6=
EXTT7=
EXTT8=
EXTT9=
EXTT10=
EXTT11=
EXTT12=
PLAYORDER=
